{"accessors":[{"bufferView":0,"componentType":5126,"count":24,"max":[0.5,0.5,0.5],"min":[-0.5,-0.5,-0.5],"normalized":false,"type":"VEC3"},{"bufferView":1,"componentType":5126,"count":24,"max":[1.0,0.0,1.0,1.0],"min":[-1.0,-1.5259254723787308e-05,-1.0,1.0],"normalized":false,"type":"VEC4"},{"bufferView":2,"componentType":5126,"count":24,"max":[1.0,1.0,1.0],"min":[-1.0,-1.0,-1.0],"normalized":false,"type":"VEC3"},{"bufferView":3,"componentType":5126,"count":24,"max":[1.0,1.0],"min":[0.0,0.0],"normalized":false,"type":"VEC2"},{"bufferView":4,"componentType":5126,"count":24,"max":[0.8571428656578064,0.9047620296478271],"min":[0.0,0.0],"normalized":false,"type":"VEC2"},{"bufferView":5,"componentType":5121,"count":36,"max":[23.0],"min":[0.0],"normalized":false,"type":"SCALAR"},{"bufferView":6,"componentType":5126,"count":62880,"max":[-15.737630844116211,12.314162254333496,4.267270088195801],"min":[-16.73763084411621,2.9641971588134766,-0.4327297806739807],"normalized":false,"type":"VEC3"},{"bufferView":7,"componentType":5126,"count":62880,"max":[0.7069905996322632,1.0,1.0,1.0],"min":[-0.7071114778518677,-1.0,-0.9999960660934448,-1.0],"normalized":false,"type":"VEC4"},{"bufferView":8,"componentType":5126,"count":62880,"max":[0.7074488401412964,0.7071068286895752,0.9486871957778931],"min":[-0.7098842859268188,-0.9486948847770691,-0.9467084407806396],"normalized":false,"type":"VEC3"},{"bufferView":9,"componentType":5126,"count":62880,"max":[26.195201873779297,0.5],"min":[0.0,0.0],"normalized":false,"type":"VEC2"},{"bufferView":10,"componentType":5123,"count":62880,"max":[62879.0],"min":[0.0],"normalized":false,"type":"SCALAR"},{"bufferView":11,"componentType":5126,"count":12000,"max":[-15.73759937286377,12.313799858093262,4.267300128936768],"min":[-16.737600326538086,2.964200019836426,-0.432699978351593],"normalized":false,"type":"VEC3"},{"bufferView":12,"componentType":5123,"count":12000,"max":[11999.0],"min":[0.0],"normalized":false,"type":"SCALAR"},{"bufferView":13,"componentType":5126,"count":4,"max":[0.0,0.5,0.5],"min":[0.0,-0.5,-0.5],"normalized":false,"type":"VEC3"},{"bufferView":14,"componentType":5126,"count":4,"max":[0.0,0.0,-1.0,1.0],"min":[0.0,0.0,-1.0,1.0],"normalized":false,"type":"VEC4"},{"bufferView":15,"componentType":5126,"count":4,"max":[1.0,0.0,-1.5259021893143654e-05],"min":[1.0,0.0,-1.5259021893143654e-05],"normalized":false,"type":"VEC3"},{"bufferView":16,"componentType":5126,"count":4,"max":[1.0,1.0],"min":[0.0,0.0],"normalized":false,"type":"VEC2"},{"bufferView":17,"componentType":5126,"count":4,"max":[0.7142857313156128,0.7142857313156128],"min":[0.0,0.0],"normalized":false,"type":"VEC2"},{"bufferView":18,"componentType":5121,"count":6,"max":[3.0],"min":[0.0],"normalized":false,"type":"SCALAR"}],"asset":{"generator":"Godot Engine v4.6.dev4.official@bd2ca13c6f3a5198eac035c855dcd1759e077313","version":"2.0"},"bufferViews":[{"buffer":0,"byteLength":288,"byteStride":12,"target":34962},{"buffer":0,"byteLength":384,"byteOffset":288,"byteStride":16,"target":34962},{"buffer":0,"byteLength":288,"byteOffset":672,"byteStride":12,"target":34962},{"buffer":0,"byteLength":192,"byteOffset":960,"byteStride":8,"target":34962},{"buffer":0,"byteLength":192,"byteOffset":1152,"byteStride":8,"target":34962},{"buffer":0,"byteLength":36,"byteOffset":1344,"target":34963},{"buffer":0,"byteLength":754560,"byteOffset":1380,"byteStride":12,"target":34962},{"buffer":0,"byteLength":1006080,"byteOffset":755940,"byteStride":16,"target":34962},{"buffer":0,"byteLength":754560,"byteOffset":1762020,"byteStride":12,"target":34962},{"buffer":0,"byteLength":503040,"byteOffset":2516580,"byteStride":8,"target":34962},{"buffer":0,"byteLength":125760,"byteOffset":3019620,"target":34963},{"buffer":0,"byteLength":144000,"byteOffset":3145380,"byteStride":12,"target":34962},{"buffer":0,"byteLength":24000,"byteOffset":3289380,"target":34963},{"buffer":0,"byteLength":48,"byteOffset":3313380,"byteStride":12,"target":34962},{"buffer":0,"byteLength":64,"byteOffset":3313428,"byteStride":16,"target":34962},{"buffer":0,"byteLength":48,"byteOffset":3313492,"byteStride":12,"target":34962},{"buffer":0,"byteLength":32,"byteOffset":3313540,"byteStride":8,"target":34962},{"buffer":0,"byteLength":32,"byteOffset":3313572,"byteStride":8,"target":34962},{"buffer":0,"byteLength":6,"byteOffset":3313604,"target":34963}],"buffers":[{"byteLength":3313610,"uri":"home0.bin"}],"extensions":{"OMI_physics_shape":{"shapes":[{"box":{"size":[1.0,1.0,1.0]},"type":"box"},{"trimesh":{"mesh":0},"type":"trimesh"},{"trimesh":{"mesh":8},"type":"trimesh"},{"trimesh":{"mesh":9},"type":"trimesh"}]}},"extensionsRequired":["KHR_texture_transform"],"extensionsUsed":["GODOT_single_root","KHR_texture_transform","OMI_physics_body","OMI_physics_shape"],"images":[{"name":"WoodFloor062_1K-PNG_Color","uri":"textures%2FWoodFloor062_1K-PNG_Color.png"},{"name":"WoodFloor062_1K-PNG_Roughness","uri":"textures%2FWoodFloor062_1K-PNG_Roughness.png"},{"name":"WoodFloor062_1K-PNG_NormalGL","uri":"textures%2FWoodFloor062_1K-PNG_NormalGL.png"},{"name":"Plastic013A_2K-PNG_Color","uri":"textures%2FPlastic013A_2K-PNG_Color.png"},{"name":"Plastic013A_2K-PNG_Roughness","uri":"textures%2FPlastic013A_2K-PNG_Roughness.png"},{"name":"Plastic013A_2K-PNG_NormalGL","uri":"textures%2FPlastic013A_2K-PNG_NormalGL.png"},{"name":"OfficeCeiling001_2K-PNG_Color","uri":"textures%2FOfficeCeiling001_2K-PNG_Color.png"},{"name":"OfficeCeiling001_2K-PNG_orm","uri":"textures%2FOfficeCeiling001_2K-PNG_orm.png"},{"name":"OfficeCeiling001_2K-PNG_NormalGL","uri":"textures%2FOfficeCeiling001_2K-PNG_NormalGL.png"},{"name":"OfficeCeiling001_2K-PNG_Emission","uri":"textures%2FOfficeCeiling001_2K-PNG_Emission.png"}],"materials":[{"extensions":{},"name":"WoodFloor062_1K-PNG","normalTexture":{"index":2,"scale":1.0},"pbrMetallicRoughness":{"baseColorFactor":[1.0,1.0,1.0,1.0],"baseColorTexture":{"extensions":{"KHR_texture_transform":{"scale":[3.0,3.0]}},"index":0},"metallicFactor":0.0,"metallicRoughnessTexture":{"extensions":{"KHR_texture_transform":{"scale":[3.0,3.0]}},"index":1},"roughnessFactor":1.0}},{"extensions":{},"name":"Plastic013A_2K-PNG","normalTexture":{"index":5,"scale":1.0},"pbrMetallicRoughness":{"baseColorFactor":[1.0,1.0,1.0,1.0],"baseColorTexture":{"extensions":{"KHR_texture_transform":{"scale":[2.0,2.0]}},"index":3},"metallicFactor":0.0,"metallicRoughnessTexture":{"extensions":{"KHR_texture_transform":{"scale":[2.0,2.0]}},"index":4},"roughnessFactor":1.0}},{},{},{},{},{},{},{"emissiveFactor":[0.0,0.0,0.0],"emissiveTexture":{"index":9},"extensions":{},"name":"OfficeCeiling001_2K-PNG","normalTexture":{"index":8,"scale":1.0},"occlusionTexture":{"index":7},"pbrMetallicRoughness":{"baseColorFactor":[1.0,1.0,1.0,1.0],"baseColorTexture":{"extensions":{"KHR_texture_transform":{"scale":[3.0,2.0]}},"index":6},"metallicFactor":0.0,"metallicRoughnessTexture":{"extensions":{"KHR_texture_transform":{"scale":[3.0,2.0]}},"index":7},"roughnessFactor":1.0}}],"meshes":[{"primitives":[{"attributes":{"NORMAL":2,"POSITION":0,"TANGENT":1,"TEXCOORD_0":3,"TEXCOORD_1":4},"indices":5,"material":0,"mode":4}]},{"primitives":[{"attributes":{"NORMAL":2,"POSITION":0,"TANGENT":1,"TEXCOORD_0":3,"TEXCOORD_1":4},"indices":5,"material":1,"mode":4}]},{"primitives":[{"attributes":{"NORMAL":2,"POSITION":0,"TANGENT":1,"TEXCOORD_0":3,"TEXCOORD_1":4},"indices":5,"material":1,"mode":4}]},{"primitives":[{"attributes":{"NORMAL":2,"POSITION":0,"TANGENT":1,"TEXCOORD_0":3,"TEXCOORD_1":4},"indices":5,"material":1,"mode":4}]},{"primitives":[{"attributes":{"NORMAL":2,"POSITION":0,"TANGENT":1,"TEXCOORD_0":3,"TEXCOORD_1":4},"indices":5,"material":1,"mode":4}]},{"primitives":[{"attributes":{"NORMAL":2,"POSITION":0,"TANGENT":1,"TEXCOORD_0":3,"TEXCOORD_1":4},"indices":5,"material":1,"mode":4}]},{"name":"CSGPolygon3D2","primitives":[{"attributes":{"NORMAL":8,"POSITION":6,"TANGENT":7,"TEXCOORD_0":9},"indices":10,"material":1,"mode":4}]},{"primitives":[{"attributes":{"NORMAL":8,"POSITION":6,"TANGENT":7,"TEXCOORD_0":9},"indices":10,"material":1,"mode":4}]},{"primitives":[{"attributes":{"POSITION":11},"indices":12,"mode":4}]},{"primitives":[{"attributes":{"NORMAL":15,"POSITION":13,"TANGENT":14,"TEXCOORD_0":16,"TEXCOORD_1":17},"indices":18,"material":2,"mode":4}]},{"primitives":[{"attributes":{"NORMAL":15,"POSITION":13,"TANGENT":14,"TEXCOORD_0":16,"TEXCOORD_1":17},"indices":18,"material":3,"mode":4}]},{"primitives":[{"attributes":{"NORMAL":15,"POSITION":13,"TANGENT":14,"TEXCOORD_0":16,"TEXCOORD_1":17},"indices":18,"material":4,"mode":4}]},{"primitives":[{"attributes":{"NORMAL":15,"POSITION":13,"TANGENT":14,"TEXCOORD_0":16,"TEXCOORD_1":17},"indices":18,"material":5,"mode":4}]},{"primitives":[{"attributes":{"NORMAL":15,"POSITION":13,"TANGENT":14,"TEXCOORD_0":16,"TEXCOORD_1":17},"indices":18,"material":6,"mode":4}]},{"primitives":[{"attributes":{"NORMAL":15,"POSITION":13,"TANGENT":14,"TEXCOORD_0":16,"TEXCOORD_1":17},"indices":18,"material":7,"mode":4}]},{"primitives":[{"attributes":{"NORMAL":2,"POSITION":0,"TANGENT":1,"TEXCOORD_0":3,"TEXCOORD_1":4},"indices":5,"material":8,"mode":4}]}],"nodes":[{"children":[1,4,7,10,13,33,36,37],"name":"Home"},{"children":[2,3],"extensions":{"OMI_physics_body":{"motion":{"type":"static"}}},"name":"Floor"},{"mesh":0,"name":"Floor2","rotation":[-5.2359700930537656e-05,1.3662074138665048e-07,-0.0026092638727277517,0.9999966025352478],"scale":[35.95621109008789,5.252982139587402,34.205528259277344],"translation":[1.139477252960205,1.9915592670440674,1.4436830282211304]},{"extensions":{"OMI_physics_body":{"collider":{"shape":0}}},"name":"CollisionShape3D","rotation":[-5.235969729255885e-05,1.366207555975052e-07,-0.0026092634070664644,0.9999966025352478],"scale":[37.20255661010742,5.228818416595459,32.69279861450195],"translation":[0.9241256713867188,1.9915592670440674,1.4436830282211304]},{"children":[5,6],"extensions":{"OMI_physics_body":{"motion":{"type":"static"}}},"name":"Vall","rotation":[-5.2359700930537656e-05,1.3662074138665048e-07,-0.0026092638727277517,0.9999966025352478],"scale":[35.95621109008789,5.252982139587402,34.205528259277344],"translation":[0.9241256713867188,1.9915592670440674,1.4436830282211304]},{"matrix":[0.9483801126480103,0.03387684002518654,5.448050615086686e-07,0.0,-0.0018014325760304928,2.3628365993499756,3.79989760403987e-05,0.0,-3.378588268800487e-15,-1.9935296222683974e-05,0.02923503890633583,0.0,0.00019088014960289001,0.9248945713043213,0.4810935854911804,1.0],"mesh":1,"name":"Vall2"},{"extensions":{"OMI_physics_body":{"collider":{"shape":0}}},"matrix":[1.014766812324524,0.03624822199344635,5.829414817526413e-07,0.0,-0.0022517903707921505,2.9535458087921143,4.7498724597971886e-05,0.0,-1.8998906655266594e-15,-2.990294342453126e-05,0.0438525527715683,0.0,0.00019088014960289001,0.9248945713043213,0.4810935854911804,1.0],"name":"CollisionShape3D2"},{"children":[8,9],"extensions":{"OMI_physics_body":{"motion":{"type":"static"}}},"name":"Vall1"},{"mesh":2,"name":"Vall12","rotation":[0.0,0.7071067690849304,0.0,0.7071067690849304],"scale":[34.100616455078125,12.412107467651367,0.9999999403953552],"translation":[18.47605323791504,6.851635932922363,1.3671493530273438]},{"extensions":{"OMI_physics_body":{"collider":{"shape":0}}},"name":"CollisionShape3D3","rotation":[0.0,0.7071067690849304,0.0,0.7071067690849304],"scale":[36.48766326904297,15.515134811401367,1.4999998807907104],"translation":[18.47605323791504,6.851635932922363,1.3671493530273438]},{"children":[11,12],"extensions":{"OMI_physics_body":{"motion":{"type":"static"}}},"name":"Vall22"},{"mesh":3,"name":"Vall23","rotation":[0.0,1.0,0.0,3.491240931907669e-05],"scale":[34.10062026977539,12.412109375,1.0000001192092896],"translation":[1.1999120712280273,6.851634979248047,-15.209739685058594]},{"extensions":{"OMI_physics_body":{"collider":{"shape":0}}},"name":"CollisionShape3D4","rotation":[0.0,1.0,0.0,3.491240931907669e-05],"scale":[36.487667083740234,15.51513671875,1.500000238418579],"translation":[1.1999120712280273,6.851634979248047,-15.209739685058594]},{"children":[14,15,16,17,18,19,20,21,22,23,24,25,26,27,28,29,30,31,32],"extensions":{"OMI_physics_body":{"motion":{"type":"static"}}},"name":"Vall3"},{"mesh":4,"name":"Vall32","rotation":[0.0,-0.7071314454078674,0.0,0.7070820927619934],"scale":[17.37375259399414,12.411999702453613,0.9999964237213135],"translation":[-16.309999465942383,6.8520002365112305,-9.100000381469727]},{"extensions":{"OMI_physics_body":{"collider":{"shape":1}}},"name":"CollisionShape3D5","rotation":[0.0,-0.7071314454078674,0.0,0.7070820927619934],"scale":[17.37375259399414,12.411999702453613,0.9999964237213135],"translation":[-16.309999465942383,6.8520002365112305,-9.0]},{"mesh":5,"name":"Vall4","rotation":[0.0,-0.7071314454078674,0.0,0.7070820927619934],"scale":[16.205881118774414,12.411999702453613,0.9999985098838806],"translation":[-16.305999755859375,6.8520002365112305,12.300000190734863]},{"extensions":{"OMI_physics_body":{"collider":{"shape":1}}},"name":"CollisionShape3D9","rotation":[0.0,-0.7071314454078674,0.0,0.7070820927619934],"scale":[16.205881118774414,12.411999702453613,0.9999985098838806],"translation":[-16.305999755859375,6.8520002365112305,12.300000190734863]},{"mesh":6,"name":"CSGPolygon3D2","translation":[-0.07999999821186066,0.0,0.0]},{"mesh":7,"name":"CSGBakedMeshInstance3D"},{"extensions":{"OMI_physics_body":{"collider":{"shape":2}}},"name":"CollisionShape3D32","translation":[-0.07000000029802322,0.0,0.0]},{"mesh":9,"name":"MeshInstance3D","scale":[1.0,2.074401617050171,1.0],"translation":[-15.814085960388184,11.395976066589355,3.7442092895507813]},{"extensions":{"OMI_physics_body":{"collider":{"shape":3}}},"name":"CollisionShape3D22","scale":[1.0,2.074401617050171,1.0],"translation":[-15.814085960388184,11.395976066589355,3.7442092895507813]},{"mesh":10,"name":"MeshInstance3D4","rotation":[0.0,1.0,0.0,-4.371138828673793e-08],"scale":[1.0,2.074401617050171,1.0],"translation":[-16.80547523498535,11.395976066589355,3.7442092895507813]},{"extensions":{"OMI_physics_body":{"collider":{"shape":3}}},"name":"CollisionShape3D42","rotation":[0.0,1.0,0.0,-4.371138828673793e-08],"scale":[1.0,2.074401617050171,1.0],"translation":[-16.80547523498535,11.395976066589355,3.7442092895507813]},{"mesh":11,"name":"MeshInstance3D6","rotation":[0.0,1.0,0.0,-4.371138828673793e-08],"scale":[1.0,2.074401617050171,1.0],"translation":[-16.80547523498535,11.395976066589355,-0.15537041425704956]},{"extensions":{"OMI_physics_body":{"collider":{"shape":3}}},"name":"CollisionShape3D52","rotation":[0.0,1.0,0.0,-4.371138828673793e-08],"scale":[1.0,2.074401617050171,1.0],"translation":[-16.80547523498535,11.395976066589355,-0.15537041425704956]},{"mesh":12,"name":"MeshInstance3D3","scale":[1.0,2.074401617050171,1.0],"translation":[-15.814085960388184,11.395976066589355,0.07821595668792725]},{"extensions":{"OMI_physics_body":{"collider":{"shape":3}}},"name":"CollisionShape3D6","scale":[1.0,2.074401617050171,1.0],"translation":[-15.814085960388184,11.395976066589355,0.07821595668792725]},{"mesh":13,"name":"MeshInstance3D2","scale":[1.0,1.146549105644226,2.9274590015411377],"translation":[-15.814085960388184,11.937093734741211,1.794175148010254]},{"extensions":{"OMI_physics_body":{"collider":{"shape":3}}},"name":"CollisionShape3D7","scale":[1.0,1.146549105644226,2.9274590015411377],"translation":[-15.814085960388184,11.937093734741211,1.794175148010254]},{"mesh":14,"name":"MeshInstance3D5","rotation":[0.0,1.0,0.0,-4.371138828673793e-08],"scale":[1.0,1.146549105644226,2.9274590015411377],"translation":[-16.806556701660156,11.937093734741211,1.794175148010254]},{"extensions":{"OMI_physics_body":{"collider":{"shape":3}}},"name":"CollisionShape3D8","rotation":[0.0,1.0,0.0,-4.371138828673793e-08],"scale":[1.0,1.146549105644226,2.9274590015411377],"translation":[-16.806556701660156,11.937093734741211,1.794175148010254]},{"children":[34,35],"extensions":{"OMI_physics_body":{"motion":{"type":"static"}}},"name":"Ceiling"},{"mesh":15,"name":"Ceiling2","scale":[35.87699890136719,1.0,33.715999603271484],"translation":[1.128000020980835,12.824999809265137,1.399999976158142]},{"extensions":{"OMI_physics_body":{"collider":{"shape":0}}},"name":"CollisionShape3D10","scale":[38.26141357421875,1.2502986192703247,33.345252990722656],"translation":[1.1284637451171875,13.473206520080566,1.4004701375961304]},{"name":"MegingMeshes"},{"name":"Path3D","translation":[-16.73763084411621,9.964197158813477,-0.4327297806739807]}],"samplers":[{"magFilter":9729,"minFilter":9987,"wrapS":10497,"wrapT":10497}],"scene":0,"scenes":[{"nodes":[0]}],"textures":[{"sampler":0,"source":0},{"sampler":0,"source":1},{"sampler":0,"source":2},{"sampler":0,"source":3},{"sampler":0,"source":4},{"sampler":0,"source":5},{"sampler":0,"source":6},{"sampler":0,"source":7},{"sampler":0,"source":8},{"sampler":0,"source":9}]}